<?xml version="1.0" encoding="utf-8"?>
<svg viewBox="91.742 56.429 30 30" xmlns="http://www.w3.org/2000/svg">
  <path d="M 120.492 86.429 L 115.492 86.429 C 114.742 86.429 114.242 85.929 114.242 85.179 C 114.242 84.429 114.742 83.929 115.492 83.929 L 120.492 83.929 C 121.242 83.929 121.742 84.429 121.742 85.179 C 121.742 85.929 121.242 86.429 120.492 86.429 Z" fill="#563F3B"/>
  <path d="M 120.492 86.429 C 119.742 86.429 119.242 85.929 119.242 85.179 L 119.242 80.179 C 119.242 79.429 119.742 78.929 120.492 78.929 C 121.242 78.929 121.742 79.429 121.742 80.179 L 121.742 85.179 C 121.742 85.929 121.242 86.429 120.492 86.429 Z" fill="#563F3B"/>
  <path d="M 97.992 58.929 L 92.992 58.929 C 92.242 58.929 91.742 58.429 91.742 57.679 C 91.742 56.929 92.242 56.429 92.992 56.429 L 97.992 56.429 C 98.742 56.429 99.242 56.929 99.242 57.679 C 99.242 58.429 98.742 58.929 97.992 58.929 Z" fill="#563F3B"/>
  <path d="M 92.992 63.929 C 92.242 63.929 91.742 63.429 91.742 62.679 L 91.742 57.679 C 91.742 56.929 92.242 56.429 92.992 56.429 C 93.742 56.429 94.242 56.929 94.242 57.679 L 94.242 62.679 C 94.242 63.429 93.742 63.929 92.992 63.929 Z" fill="#563F3B"/>
  <path d="M 101.492 67.429 C 101.117 67.429 100.867 67.304 100.617 67.054 L 92.367 58.804 C 91.867 58.304 91.867 57.554 92.367 57.054 C 92.867 56.554 93.617 56.554 94.117 57.054 L 102.242 65.179 C 102.742 65.679 102.742 66.429 102.242 66.929 C 102.117 67.304 101.742 67.429 101.492 67.429 Z" fill="#563F3B"/>
  <path d="M 120.242 86.179 C 119.867 86.179 119.617 86.054 119.367 85.804 L 111.242 77.679 C 110.742 77.179 110.742 76.429 111.242 75.929 C 111.742 75.429 112.492 75.429 112.992 75.929 L 121.117 84.054 C 121.617 84.554 121.617 85.304 121.117 85.804 C 120.867 86.054 120.492 86.179 120.242 86.179 Z" fill="#563F3B"/>
  <path d="M 92.992 86.429 C 92.242 86.429 91.742 85.929 91.742 85.179 L 91.742 80.179 C 91.742 79.429 92.242 78.929 92.992 78.929 C 93.742 78.929 94.242 79.429 94.242 80.179 L 94.242 85.179 C 94.242 85.929 93.742 86.429 92.992 86.429 Z" fill="#563F3B"/>
  <path d="M 97.992 86.429 L 92.992 86.429 C 92.242 86.429 91.742 85.929 91.742 85.179 C 91.742 84.429 92.242 83.929 92.992 83.929 L 97.992 83.929 C 98.742 83.929 99.242 84.429 99.242 85.179 C 99.242 85.929 98.742 86.429 97.992 86.429 Z" fill="#563F3B"/>
  <path d="M 120.492 63.929 C 119.742 63.929 119.242 63.429 119.242 62.679 L 119.242 57.679 C 119.242 56.929 119.742 56.429 120.492 56.429 C 121.242 56.429 121.742 56.929 121.742 57.679 L 121.742 62.679 C 121.742 63.429 121.242 63.929 120.492 63.929 Z" fill="#563F3B"/>
  <path d="M 120.492 58.929 L 115.492 58.929 C 114.742 58.929 114.242 58.429 114.242 57.679 C 114.242 56.929 114.742 56.429 115.492 56.429 L 120.492 56.429 C 121.242 56.429 121.742 56.929 121.742 57.679 C 121.742 58.429 121.242 58.929 120.492 58.929 Z" fill="#563F3B"/>
  <path d="M 111.992 67.429 C 111.617 67.429 111.367 67.304 111.117 67.054 C 110.617 66.554 110.617 65.804 111.117 65.304 L 119.242 57.179 C 119.742 56.679 120.492 56.679 120.992 57.179 C 121.492 57.679 121.492 58.429 120.992 58.929 L 112.867 67.054 C 112.742 67.304 112.367 67.429 111.992 67.429 Z" fill="#563F3B"/>
  <path d="M 93.242 86.179 C 92.867 86.179 92.617 86.054 92.367 85.804 C 91.867 85.304 91.867 84.554 92.367 84.054 L 100.492 75.929 C 100.992 75.429 101.742 75.429 102.242 75.929 C 102.742 76.429 102.742 77.179 102.242 77.679 L 94.117 85.804 C 93.867 86.054 93.617 86.179 93.242 86.179 Z" fill="#563F3B"/>
</svg>