<?xml version="1.0" encoding="UTF-8"?> <svg xmlns="http://www.w3.org/2000/svg" width="190" height="31" viewBox="0 0 190 31" fill="none"> <path d="M94.8564 30.4349V25.9748H83.4781V0.5H78.3555V30.4349H94.8564ZM65.8122 30.4349V26.2678H53.3328V17.2336H64.5036V13.1479H53.3328V4.66712H65.4292V0.5H48.2899V30.4349H65.8122ZM21.7353 30.4349V16.5174H21.8629L32.8263 30.4349H38.8905L26.5707 15.0035L38.3958 0.5H32.571L21.8629 13.7827H21.7353V0.5H16.6605V30.4349H21.7353Z" fill="#FCFAF7"></path> <path d="M5.10667 25.1609H0V30.3698H5.10667V25.1609Z" fill="#FCFAF7"></path> <path d="M95.3511 0.5V5.02523H106.729V30.5H111.852V0.5H95.3511ZM124.475 0.5V4.73223H136.97V13.7501H125.8V17.8521H136.97V26.3166H124.778V30.5H141.933V0.5H124.475ZM168.552 0.5V14.4664H168.424L157.397 0.5H151.317L163.637 15.9476L151.812 30.4512H157.636L168.345 17.1685H168.472V30.4512H173.563V0.5H168.552Z" fill="#FCFAF7"></path> <path d="M190 0.646515H184.893V5.85541H190V0.646515Z" fill="#FCFAF7"></path> </svg> 