<?xml version="1.0" encoding="utf-8"?>
<svg viewBox="9.832 10.872 192 30" xmlns="http://www.w3.org/2000/svg">
  <g transform="matrix(1, 0, 0, 1, -45.911186, -39.284828)">
    <path d="M 225.774 50.213 L 225.774 64.13 L 225.649 64.13 L 214.577 50.213 L 208.436 50.213 L 220.886 65.649 L 208.936 80.157 L 214.828 80.157 L 225.649 66.872 L 225.774 66.872 L 225.774 80.157 L 230.912 80.157 L 230.912 50.213 L 225.774 50.213 Z M 181.236 50.213 L 181.236 54.389 L 193.853 54.389 L 193.853 63.414 L 182.573 63.414 L 182.573 67.505 L 193.853 67.505 L 193.853 75.982 L 181.612 75.982 L 181.612 80.157 L 198.95 80.157 L 198.95 50.213 L 181.236 50.213 Z M 151.886 50.213 L 151.886 54.684 L 163.375 54.684 L 163.375 80.157 L 168.555 80.157 L 168.555 50.213 L 151.886 50.213 Z" fill="#B3B0AB"/>
    <path fill-rule="evenodd" clip-rule="evenodd" d="M 247.743 50.295 L 242.587 50.295 L 242.587 55.5 L 247.743 55.5 L 247.743 50.295 Z" fill="#B3B0AB"/>
    <path d="M 77.492 80.101 L 77.492 66.183 L 77.617 66.183 L 88.689 80.101 L 94.83 80.101 L 82.38 64.665 L 94.329 50.157 L 88.438 50.157 L 77.617 63.442 L 77.492 63.442 L 77.492 50.157 L 72.353 50.157 L 72.353 80.101 L 77.492 80.101 Z M 122.029 80.101 L 122.029 75.926 L 109.413 75.926 L 109.413 66.9 L 120.692 66.9 L 120.692 62.81 L 109.413 62.81 L 109.413 54.332 L 121.654 54.332 L 121.654 50.157 L 104.316 50.157 L 104.316 80.101 L 122.029 80.101 Z M 151.38 80.101 L 151.38 75.631 L 139.891 75.631 L 139.891 50.157 L 134.71 50.157 L 134.71 80.101 L 151.38 80.101 Z" fill="#B3B0AB"/>
    <path fill-rule="evenodd" clip-rule="evenodd" d="M 60.9 74.813 L 55.743 74.813 L 55.743 80.018 L 60.9 80.018 L 60.9 74.813 Z" fill="#B3B0AB"/>
  </g>
</svg>