<svg width="128" height="20" xmlns="http://www.w3.org/2000/svg">

 <g>
  <title>Layer 1</title>
  <path id="svg_1" fill="#563F3B" d="m113.354,0.038l0,9.278l-0.084,0l-7.381,-9.278l-4.094,0l8.3,10.291l-7.966,9.671l3.927,0l7.214,-8.856l0.084,0l0,8.856l3.425,0l0,-19.962l-3.425,0zm-29.692,0l0,2.784l8.411,0l0,6.016l-7.52,0l0,2.728l7.52,0l0,5.651l-8.161,0l0,2.783l11.559,0l0,-19.962l-11.809,0l0,0zm-19.568,0l0,2.98l7.66,0l0,16.982l3.453,0l0,-19.962l-11.113,0z"/>
  <path id="svg_2" fill="#563F3B" d="m128,0.092l-3.438,0l0,3.47l3.438,0l0,-3.47z" clip-rule="evenodd" fill-rule="evenodd"/>
  <path id="svg_3" fill="#563F3B" d="m14.499,19.963l0,-9.278l0.083,0l7.381,9.278l4.095,0l-8.3,-10.291l7.966,-9.671l-3.928,0l-7.214,8.856l-0.083,0l0,-8.856l-3.426,0l0,19.962l3.426,0zm29.691,0l0,-2.784l-8.411,0l0,-6.017l7.52,0l0,-2.727l-7.52,0l0,-5.651l8.161,0l0,-2.784l-11.559,0l0,19.963l11.809,0zm19.567,0l0,-2.98l-7.659,0l0,-16.983l-3.454,0l0,19.963l11.113,0z"/>
  <path id="svg_4" fill="#563F3B" d="m3.437,16.438l-3.437,0l0,3.47l3.437,0l0,-3.47z" clip-rule="evenodd" fill-rule="evenodd"/>
 </g>
</svg>